<mxfile host="app.diagrams.net" agent="Mozilla/5.0 (Macintosh; Intel Mac OS X 10_15_7) AppleWebKit/537.36 (KHTML, like Gecko) Chrome/135.0.0.0 Safari/537.36" version="26.2.8">
  <diagram name="Page-1" id="uySYuqd0a6NsRCpVFzTL">
    <mxGraphModel dx="1188" dy="-399" grid="1" gridSize="10" guides="1" tooltips="1" connect="1" arrows="1" fold="1" page="1" pageScale="1" pageWidth="850" pageHeight="1100" math="0" shadow="0">
      <root>
        <mxCell id="0" />
        <mxCell id="1" parent="0" />
        <mxCell id="xvCmB3Kxc6MJ8CCiMFVW-1" value="User" style="swimlane;fontStyle=1;align=center;verticalAlign=top;childLayout=stackLayout;horizontal=1;startSize=32;horizontalStack=0;resizeParent=1;resizeParentMax=0;resizeLast=0;collapsible=0;marginBottom=0;" vertex="1" parent="1">
          <mxGeometry x="427" y="1540" width="202" height="208" as="geometry" />
        </mxCell>
        <mxCell id="xvCmB3Kxc6MJ8CCiMFVW-2" value="+UUID user_id" style="text;strokeColor=none;fillColor=none;align=left;verticalAlign=top;spacingLeft=4;spacingRight=4;overflow=hidden;rotatable=0;points=[[0,0.5],[1,0.5]];portConstraint=eastwest;" vertex="1" parent="xvCmB3Kxc6MJ8CCiMFVW-1">
          <mxGeometry y="32" width="202" height="32" as="geometry" />
        </mxCell>
        <mxCell id="xvCmB3Kxc6MJ8CCiMFVW-3" value="+String name" style="text;strokeColor=none;fillColor=none;align=left;verticalAlign=top;spacingLeft=4;spacingRight=4;overflow=hidden;rotatable=0;points=[[0,0.5],[1,0.5]];portConstraint=eastwest;" vertex="1" parent="xvCmB3Kxc6MJ8CCiMFVW-1">
          <mxGeometry y="64" width="202" height="32" as="geometry" />
        </mxCell>
        <mxCell id="xvCmB3Kxc6MJ8CCiMFVW-4" value="+String email" style="text;strokeColor=none;fillColor=none;align=left;verticalAlign=top;spacingLeft=4;spacingRight=4;overflow=hidden;rotatable=0;points=[[0,0.5],[1,0.5]];portConstraint=eastwest;" vertex="1" parent="xvCmB3Kxc6MJ8CCiMFVW-1">
          <mxGeometry y="96" width="202" height="32" as="geometry" />
        </mxCell>
        <mxCell id="xvCmB3Kxc6MJ8CCiMFVW-5" value="+String password_hash" style="text;strokeColor=none;fillColor=none;align=left;verticalAlign=top;spacingLeft=4;spacingRight=4;overflow=hidden;rotatable=0;points=[[0,0.5],[1,0.5]];portConstraint=eastwest;" vertex="1" parent="xvCmB3Kxc6MJ8CCiMFVW-1">
          <mxGeometry y="128" width="202" height="32" as="geometry" />
        </mxCell>
        <mxCell id="xvCmB3Kxc6MJ8CCiMFVW-6" value="+String role" style="text;strokeColor=none;fillColor=none;align=left;verticalAlign=top;spacingLeft=4;spacingRight=4;overflow=hidden;rotatable=0;points=[[0,0.5],[1,0.5]];portConstraint=eastwest;" vertex="1" parent="xvCmB3Kxc6MJ8CCiMFVW-1">
          <mxGeometry y="160" width="202" height="32" as="geometry" />
        </mxCell>
        <mxCell id="xvCmB3Kxc6MJ8CCiMFVW-7" style="line;strokeWidth=1;fillColor=none;align=left;verticalAlign=middle;spacingTop=-1;spacingLeft=3;spacingRight=3;rotatable=0;labelPosition=right;points=[];portConstraint=eastwest;strokeColor=inherit;" vertex="1" parent="xvCmB3Kxc6MJ8CCiMFVW-1">
          <mxGeometry y="192" width="202" height="16" as="geometry" />
        </mxCell>
        <mxCell id="xvCmB3Kxc6MJ8CCiMFVW-8" value="Project" style="swimlane;fontStyle=1;align=center;verticalAlign=top;childLayout=stackLayout;horizontal=1;startSize=30.11764705882353;horizontalStack=0;resizeParent=1;resizeParentMax=0;resizeLast=0;collapsible=0;marginBottom=0;" vertex="1" parent="1">
          <mxGeometry x="44" y="1806" width="241" height="255.11764705882354" as="geometry" />
        </mxCell>
        <mxCell id="xvCmB3Kxc6MJ8CCiMFVW-9" value="+UUID project_id" style="text;strokeColor=none;fillColor=none;align=left;verticalAlign=top;spacingLeft=4;spacingRight=4;overflow=hidden;rotatable=0;points=[[0,0.5],[1,0.5]];portConstraint=eastwest;" vertex="1" parent="xvCmB3Kxc6MJ8CCiMFVW-8">
          <mxGeometry y="30.11764705882353" width="241" height="30" as="geometry" />
        </mxCell>
        <mxCell id="xvCmB3Kxc6MJ8CCiMFVW-10" value="+UUID user_id" style="text;strokeColor=none;fillColor=none;align=left;verticalAlign=top;spacingLeft=4;spacingRight=4;overflow=hidden;rotatable=0;points=[[0,0.5],[1,0.5]];portConstraint=eastwest;" vertex="1" parent="xvCmB3Kxc6MJ8CCiMFVW-8">
          <mxGeometry y="60.11764705882353" width="241" height="30" as="geometry" />
        </mxCell>
        <mxCell id="xvCmB3Kxc6MJ8CCiMFVW-11" value="+String title" style="text;strokeColor=none;fillColor=none;align=left;verticalAlign=top;spacingLeft=4;spacingRight=4;overflow=hidden;rotatable=0;points=[[0,0.5],[1,0.5]];portConstraint=eastwest;" vertex="1" parent="xvCmB3Kxc6MJ8CCiMFVW-8">
          <mxGeometry y="90.11764705882354" width="241" height="30" as="geometry" />
        </mxCell>
        <mxCell id="xvCmB3Kxc6MJ8CCiMFVW-12" value="+String genre" style="text;strokeColor=none;fillColor=none;align=left;verticalAlign=top;spacingLeft=4;spacingRight=4;overflow=hidden;rotatable=0;points=[[0,0.5],[1,0.5]];portConstraint=eastwest;" vertex="1" parent="xvCmB3Kxc6MJ8CCiMFVW-8">
          <mxGeometry y="120.11764705882354" width="241" height="30" as="geometry" />
        </mxCell>
        <mxCell id="xvCmB3Kxc6MJ8CCiMFVW-13" value="+String mood" style="text;strokeColor=none;fillColor=none;align=left;verticalAlign=top;spacingLeft=4;spacingRight=4;overflow=hidden;rotatable=0;points=[[0,0.5],[1,0.5]];portConstraint=eastwest;" vertex="1" parent="xvCmB3Kxc6MJ8CCiMFVW-8">
          <mxGeometry y="150.11764705882354" width="241" height="30" as="geometry" />
        </mxCell>
        <mxCell id="xvCmB3Kxc6MJ8CCiMFVW-14" value="+Timestamp created_at" style="text;strokeColor=none;fillColor=none;align=left;verticalAlign=top;spacingLeft=4;spacingRight=4;overflow=hidden;rotatable=0;points=[[0,0.5],[1,0.5]];portConstraint=eastwest;" vertex="1" parent="xvCmB3Kxc6MJ8CCiMFVW-8">
          <mxGeometry y="180.11764705882354" width="241" height="30" as="geometry" />
        </mxCell>
        <mxCell id="xvCmB3Kxc6MJ8CCiMFVW-15" value="+Timestamp last_modified" style="text;strokeColor=none;fillColor=none;align=left;verticalAlign=top;spacingLeft=4;spacingRight=4;overflow=hidden;rotatable=0;points=[[0,0.5],[1,0.5]];portConstraint=eastwest;" vertex="1" parent="xvCmB3Kxc6MJ8CCiMFVW-8">
          <mxGeometry y="210.11764705882354" width="241" height="30" as="geometry" />
        </mxCell>
        <mxCell id="xvCmB3Kxc6MJ8CCiMFVW-16" style="line;strokeWidth=1;fillColor=none;align=left;verticalAlign=middle;spacingTop=-1;spacingLeft=3;spacingRight=3;rotatable=0;labelPosition=right;points=[];portConstraint=eastwest;strokeColor=inherit;" vertex="1" parent="xvCmB3Kxc6MJ8CCiMFVW-8">
          <mxGeometry y="240.11764705882354" width="241" height="15" as="geometry" />
        </mxCell>
        <mxCell id="xvCmB3Kxc6MJ8CCiMFVW-17" value="Track" style="swimlane;fontStyle=1;align=center;verticalAlign=top;childLayout=stackLayout;horizontal=1;startSize=30.933333333333334;horizontalStack=0;resizeParent=1;resizeParentMax=0;resizeLast=0;collapsible=0;marginBottom=0;" vertex="1" parent="1">
          <mxGeometry x="20" y="2120" width="229" height="231.93333333333334" as="geometry" />
        </mxCell>
        <mxCell id="xvCmB3Kxc6MJ8CCiMFVW-18" value="+UUID track_id" style="text;strokeColor=none;fillColor=none;align=left;verticalAlign=top;spacingLeft=4;spacingRight=4;overflow=hidden;rotatable=0;points=[[0,0.5],[1,0.5]];portConstraint=eastwest;" vertex="1" parent="xvCmB3Kxc6MJ8CCiMFVW-17">
          <mxGeometry y="30.933333333333334" width="229" height="31" as="geometry" />
        </mxCell>
        <mxCell id="xvCmB3Kxc6MJ8CCiMFVW-19" value="+UUID project_id" style="text;strokeColor=none;fillColor=none;align=left;verticalAlign=top;spacingLeft=4;spacingRight=4;overflow=hidden;rotatable=0;points=[[0,0.5],[1,0.5]];portConstraint=eastwest;" vertex="1" parent="xvCmB3Kxc6MJ8CCiMFVW-17">
          <mxGeometry y="61.93333333333334" width="229" height="31" as="geometry" />
        </mxCell>
        <mxCell id="xvCmB3Kxc6MJ8CCiMFVW-20" value="+String type" style="text;strokeColor=none;fillColor=none;align=left;verticalAlign=top;spacingLeft=4;spacingRight=4;overflow=hidden;rotatable=0;points=[[0,0.5],[1,0.5]];portConstraint=eastwest;" vertex="1" parent="xvCmB3Kxc6MJ8CCiMFVW-17">
          <mxGeometry y="92.93333333333334" width="229" height="31" as="geometry" />
        </mxCell>
        <mxCell id="xvCmB3Kxc6MJ8CCiMFVW-21" value="+Text content" style="text;strokeColor=none;fillColor=none;align=left;verticalAlign=top;spacingLeft=4;spacingRight=4;overflow=hidden;rotatable=0;points=[[0,0.5],[1,0.5]];portConstraint=eastwest;" vertex="1" parent="xvCmB3Kxc6MJ8CCiMFVW-17">
          <mxGeometry y="123.93333333333334" width="229" height="31" as="geometry" />
        </mxCell>
        <mxCell id="xvCmB3Kxc6MJ8CCiMFVW-22" value="+Boolean is_AI_generated" style="text;strokeColor=none;fillColor=none;align=left;verticalAlign=top;spacingLeft=4;spacingRight=4;overflow=hidden;rotatable=0;points=[[0,0.5],[1,0.5]];portConstraint=eastwest;" vertex="1" parent="xvCmB3Kxc6MJ8CCiMFVW-17">
          <mxGeometry y="154.93333333333334" width="229" height="31" as="geometry" />
        </mxCell>
        <mxCell id="xvCmB3Kxc6MJ8CCiMFVW-23" value="+Timestamp created_at" style="text;strokeColor=none;fillColor=none;align=left;verticalAlign=top;spacingLeft=4;spacingRight=4;overflow=hidden;rotatable=0;points=[[0,0.5],[1,0.5]];portConstraint=eastwest;" vertex="1" parent="xvCmB3Kxc6MJ8CCiMFVW-17">
          <mxGeometry y="185.93333333333334" width="229" height="31" as="geometry" />
        </mxCell>
        <mxCell id="xvCmB3Kxc6MJ8CCiMFVW-24" style="line;strokeWidth=1;fillColor=none;align=left;verticalAlign=middle;spacingTop=-1;spacingLeft=3;spacingRight=3;rotatable=0;labelPosition=right;points=[];portConstraint=eastwest;strokeColor=inherit;" vertex="1" parent="xvCmB3Kxc6MJ8CCiMFVW-17">
          <mxGeometry y="216.93333333333334" width="229" height="15" as="geometry" />
        </mxCell>
        <mxCell id="xvCmB3Kxc6MJ8CCiMFVW-25" value="Message" style="swimlane;fontStyle=1;align=center;verticalAlign=top;childLayout=stackLayout;horizontal=1;startSize=32;horizontalStack=0;resizeParent=1;resizeParentMax=0;resizeLast=0;collapsible=0;marginBottom=0;" vertex="1" parent="1">
          <mxGeometry x="299" y="2132" width="222" height="208" as="geometry" />
        </mxCell>
        <mxCell id="xvCmB3Kxc6MJ8CCiMFVW-26" value="+UUID message_id" style="text;strokeColor=none;fillColor=none;align=left;verticalAlign=top;spacingLeft=4;spacingRight=4;overflow=hidden;rotatable=0;points=[[0,0.5],[1,0.5]];portConstraint=eastwest;" vertex="1" parent="xvCmB3Kxc6MJ8CCiMFVW-25">
          <mxGeometry y="32" width="222" height="32" as="geometry" />
        </mxCell>
        <mxCell id="xvCmB3Kxc6MJ8CCiMFVW-27" value="+UUID project_id" style="text;strokeColor=none;fillColor=none;align=left;verticalAlign=top;spacingLeft=4;spacingRight=4;overflow=hidden;rotatable=0;points=[[0,0.5],[1,0.5]];portConstraint=eastwest;" vertex="1" parent="xvCmB3Kxc6MJ8CCiMFVW-25">
          <mxGeometry y="64" width="222" height="32" as="geometry" />
        </mxCell>
        <mxCell id="xvCmB3Kxc6MJ8CCiMFVW-28" value="+UUID sender_id" style="text;strokeColor=none;fillColor=none;align=left;verticalAlign=top;spacingLeft=4;spacingRight=4;overflow=hidden;rotatable=0;points=[[0,0.5],[1,0.5]];portConstraint=eastwest;" vertex="1" parent="xvCmB3Kxc6MJ8CCiMFVW-25">
          <mxGeometry y="96" width="222" height="32" as="geometry" />
        </mxCell>
        <mxCell id="xvCmB3Kxc6MJ8CCiMFVW-29" value="+Text content" style="text;strokeColor=none;fillColor=none;align=left;verticalAlign=top;spacingLeft=4;spacingRight=4;overflow=hidden;rotatable=0;points=[[0,0.5],[1,0.5]];portConstraint=eastwest;" vertex="1" parent="xvCmB3Kxc6MJ8CCiMFVW-25">
          <mxGeometry y="128" width="222" height="32" as="geometry" />
        </mxCell>
        <mxCell id="xvCmB3Kxc6MJ8CCiMFVW-30" value="+Timestamp timestamp" style="text;strokeColor=none;fillColor=none;align=left;verticalAlign=top;spacingLeft=4;spacingRight=4;overflow=hidden;rotatable=0;points=[[0,0.5],[1,0.5]];portConstraint=eastwest;" vertex="1" parent="xvCmB3Kxc6MJ8CCiMFVW-25">
          <mxGeometry y="160" width="222" height="32" as="geometry" />
        </mxCell>
        <mxCell id="xvCmB3Kxc6MJ8CCiMFVW-31" style="line;strokeWidth=1;fillColor=none;align=left;verticalAlign=middle;spacingTop=-1;spacingLeft=3;spacingRight=3;rotatable=0;labelPosition=right;points=[];portConstraint=eastwest;strokeColor=inherit;" vertex="1" parent="xvCmB3Kxc6MJ8CCiMFVW-25">
          <mxGeometry y="192" width="222" height="16" as="geometry" />
        </mxCell>
        <mxCell id="xvCmB3Kxc6MJ8CCiMFVW-32" value="Collaborator" style="swimlane;fontStyle=1;align=center;verticalAlign=top;childLayout=stackLayout;horizontal=1;startSize=33.45454545454545;horizontalStack=0;resizeParent=1;resizeParentMax=0;resizeLast=0;collapsible=0;marginBottom=0;" vertex="1" parent="1">
          <mxGeometry x="571" y="2144" width="193" height="182.45454545454544" as="geometry" />
        </mxCell>
        <mxCell id="xvCmB3Kxc6MJ8CCiMFVW-33" value="+UUID collab_id" style="text;strokeColor=none;fillColor=none;align=left;verticalAlign=top;spacingLeft=4;spacingRight=4;overflow=hidden;rotatable=0;points=[[0,0.5],[1,0.5]];portConstraint=eastwest;" vertex="1" parent="xvCmB3Kxc6MJ8CCiMFVW-32">
          <mxGeometry y="33.45454545454545" width="193" height="33" as="geometry" />
        </mxCell>
        <mxCell id="xvCmB3Kxc6MJ8CCiMFVW-34" value="+UUID project_id" style="text;strokeColor=none;fillColor=none;align=left;verticalAlign=top;spacingLeft=4;spacingRight=4;overflow=hidden;rotatable=0;points=[[0,0.5],[1,0.5]];portConstraint=eastwest;" vertex="1" parent="xvCmB3Kxc6MJ8CCiMFVW-32">
          <mxGeometry y="66.45454545454545" width="193" height="33" as="geometry" />
        </mxCell>
        <mxCell id="xvCmB3Kxc6MJ8CCiMFVW-35" value="+UUID user_id" style="text;strokeColor=none;fillColor=none;align=left;verticalAlign=top;spacingLeft=4;spacingRight=4;overflow=hidden;rotatable=0;points=[[0,0.5],[1,0.5]];portConstraint=eastwest;" vertex="1" parent="xvCmB3Kxc6MJ8CCiMFVW-32">
          <mxGeometry y="99.45454545454545" width="193" height="33" as="geometry" />
        </mxCell>
        <mxCell id="xvCmB3Kxc6MJ8CCiMFVW-36" value="+String role" style="text;strokeColor=none;fillColor=none;align=left;verticalAlign=top;spacingLeft=4;spacingRight=4;overflow=hidden;rotatable=0;points=[[0,0.5],[1,0.5]];portConstraint=eastwest;" vertex="1" parent="xvCmB3Kxc6MJ8CCiMFVW-32">
          <mxGeometry y="132.45454545454544" width="193" height="33" as="geometry" />
        </mxCell>
        <mxCell id="xvCmB3Kxc6MJ8CCiMFVW-37" style="line;strokeWidth=1;fillColor=none;align=left;verticalAlign=middle;spacingTop=-1;spacingLeft=3;spacingRight=3;rotatable=0;labelPosition=right;points=[];portConstraint=eastwest;strokeColor=inherit;" vertex="1" parent="xvCmB3Kxc6MJ8CCiMFVW-32">
          <mxGeometry y="165.45454545454544" width="193" height="17" as="geometry" />
        </mxCell>
        <mxCell id="xvCmB3Kxc6MJ8CCiMFVW-38" value="" style="startArrow=none;endArrow=open;endSize=12;exitX=0;exitY=0.67;entryX=0.5;entryY=0;rounded=0;edgeStyle=orthogonalEdgeStyle;" edge="1" parent="1" source="xvCmB3Kxc6MJ8CCiMFVW-1" target="xvCmB3Kxc6MJ8CCiMFVW-8">
          <mxGeometry relative="1" as="geometry" />
        </mxCell>
        <mxCell id="xvCmB3Kxc6MJ8CCiMFVW-39" value="1" style="edgeLabel;resizable=0;labelBackgroundColor=none;fontSize=12;align=right;verticalAlign=top;" vertex="1" parent="xvCmB3Kxc6MJ8CCiMFVW-38">
          <mxGeometry x="-1" relative="1" as="geometry" />
        </mxCell>
        <mxCell id="xvCmB3Kxc6MJ8CCiMFVW-40" value="0..*" style="edgeLabel;resizable=0;labelBackgroundColor=none;fontSize=12;align=left;verticalAlign=bottom;" vertex="1" parent="xvCmB3Kxc6MJ8CCiMFVW-38">
          <mxGeometry x="1" relative="1" as="geometry" />
        </mxCell>
        <mxCell id="xvCmB3Kxc6MJ8CCiMFVW-41" value="" style="startArrow=none;endArrow=open;endSize=12;exitX=0.39;exitY=1;entryX=0.5;entryY=0;rounded=0;edgeStyle=orthogonalEdgeStyle;" edge="1" parent="1" source="xvCmB3Kxc6MJ8CCiMFVW-8" target="xvCmB3Kxc6MJ8CCiMFVW-17">
          <mxGeometry relative="1" as="geometry" />
        </mxCell>
        <mxCell id="xvCmB3Kxc6MJ8CCiMFVW-42" value="1" style="edgeLabel;resizable=0;labelBackgroundColor=none;fontSize=12;align=right;verticalAlign=top;" vertex="1" parent="xvCmB3Kxc6MJ8CCiMFVW-41">
          <mxGeometry x="-1" relative="1" as="geometry" />
        </mxCell>
        <mxCell id="xvCmB3Kxc6MJ8CCiMFVW-43" value="0..*" style="edgeLabel;resizable=0;labelBackgroundColor=none;fontSize=12;align=left;verticalAlign=bottom;" vertex="1" parent="xvCmB3Kxc6MJ8CCiMFVW-41">
          <mxGeometry x="1" relative="1" as="geometry" />
        </mxCell>
        <mxCell id="xvCmB3Kxc6MJ8CCiMFVW-44" value="" style="startArrow=none;endArrow=open;endSize=12;exitX=0.91;exitY=1;entryX=0.07;entryY=0;rounded=0;edgeStyle=orthogonalEdgeStyle;" edge="1" parent="1" source="xvCmB3Kxc6MJ8CCiMFVW-8" target="xvCmB3Kxc6MJ8CCiMFVW-25">
          <mxGeometry relative="1" as="geometry" />
        </mxCell>
        <mxCell id="xvCmB3Kxc6MJ8CCiMFVW-45" value="1" style="edgeLabel;resizable=0;labelBackgroundColor=none;fontSize=12;align=left;verticalAlign=top;" vertex="1" parent="xvCmB3Kxc6MJ8CCiMFVW-44">
          <mxGeometry x="-1" relative="1" as="geometry" />
        </mxCell>
        <mxCell id="xvCmB3Kxc6MJ8CCiMFVW-46" value="0..*" style="edgeLabel;resizable=0;labelBackgroundColor=none;fontSize=12;align=right;verticalAlign=bottom;" vertex="1" parent="xvCmB3Kxc6MJ8CCiMFVW-44">
          <mxGeometry x="1" relative="1" as="geometry" />
        </mxCell>
        <mxCell id="xvCmB3Kxc6MJ8CCiMFVW-47" value="" style="startArrow=none;endArrow=open;endSize=12;exitX=1;exitY=0.69;entryX=0.09;entryY=0;rounded=0;edgeStyle=orthogonalEdgeStyle;" edge="1" parent="1" source="xvCmB3Kxc6MJ8CCiMFVW-8" target="xvCmB3Kxc6MJ8CCiMFVW-32">
          <mxGeometry relative="1" as="geometry" />
        </mxCell>
        <mxCell id="xvCmB3Kxc6MJ8CCiMFVW-48" value="1" style="edgeLabel;resizable=0;labelBackgroundColor=none;fontSize=12;align=left;verticalAlign=top;" vertex="1" parent="xvCmB3Kxc6MJ8CCiMFVW-47">
          <mxGeometry x="-1" relative="1" as="geometry" />
        </mxCell>
        <mxCell id="xvCmB3Kxc6MJ8CCiMFVW-49" value="0..*" style="edgeLabel;resizable=0;labelBackgroundColor=none;fontSize=12;align=right;verticalAlign=bottom;" vertex="1" parent="xvCmB3Kxc6MJ8CCiMFVW-47">
          <mxGeometry x="1" relative="1" as="geometry" />
        </mxCell>
        <mxCell id="xvCmB3Kxc6MJ8CCiMFVW-50" value="" style="startArrow=none;endArrow=open;endSize=12;exitX=1;exitY=0.92;entryX=0.53;entryY=0;rounded=0;edgeStyle=orthogonalEdgeStyle;" edge="1" parent="1" source="xvCmB3Kxc6MJ8CCiMFVW-1" target="xvCmB3Kxc6MJ8CCiMFVW-32">
          <mxGeometry relative="1" as="geometry" />
        </mxCell>
        <mxCell id="xvCmB3Kxc6MJ8CCiMFVW-51" value="1" style="edgeLabel;resizable=0;labelBackgroundColor=none;fontSize=12;align=right;verticalAlign=top;" vertex="1" parent="xvCmB3Kxc6MJ8CCiMFVW-50">
          <mxGeometry x="-1" relative="1" as="geometry" />
        </mxCell>
        <mxCell id="xvCmB3Kxc6MJ8CCiMFVW-52" value="0..*" style="edgeLabel;resizable=0;labelBackgroundColor=none;fontSize=12;align=left;verticalAlign=bottom;" vertex="1" parent="xvCmB3Kxc6MJ8CCiMFVW-50">
          <mxGeometry x="1" relative="1" as="geometry" />
        </mxCell>
        <mxCell id="xvCmB3Kxc6MJ8CCiMFVW-53" value="" style="startArrow=none;endArrow=open;endSize=12;exitX=0.5;exitY=1;entryX=0.9;entryY=0;rounded=0;edgeStyle=orthogonalEdgeStyle;" edge="1" parent="1" source="xvCmB3Kxc6MJ8CCiMFVW-1" target="xvCmB3Kxc6MJ8CCiMFVW-25">
          <mxGeometry relative="1" as="geometry" />
        </mxCell>
        <mxCell id="xvCmB3Kxc6MJ8CCiMFVW-54" value="1" style="edgeLabel;resizable=0;labelBackgroundColor=none;fontSize=12;align=right;verticalAlign=top;" vertex="1" parent="xvCmB3Kxc6MJ8CCiMFVW-53">
          <mxGeometry x="-1" relative="1" as="geometry" />
        </mxCell>
        <mxCell id="xvCmB3Kxc6MJ8CCiMFVW-55" value="0..*" style="edgeLabel;resizable=0;labelBackgroundColor=none;fontSize=12;align=left;verticalAlign=bottom;" vertex="1" parent="xvCmB3Kxc6MJ8CCiMFVW-53">
          <mxGeometry x="1" relative="1" as="geometry" />
        </mxCell>
      </root>
    </mxGraphModel>
  </diagram>
</mxfile>
